<?xml version="1.0" ?><!DOCTYPE svg  PUBLIC '-//W3C//DTD SVG 1.1//EN'  'http://www.w3.org/Graphics/SVG/1.1/DTD/svg11.dtd'><svg enable-background="new 0 0 500 500" height="500px" id="Layer_1" version="1.1" viewBox="0 0 500 500" width="500px" xml:space="preserve" xmlns="http://www.w3.org/2000/svg" xmlns:xlink="http://www.w3.org/1999/xlink"><g><line clip-rule="evenodd" fill="none" fill-rule="evenodd" stroke="#130B7A" stroke-linecap="round" stroke-linejoin="round" stroke-miterlimit="2.6131" stroke-width="10" x1="336.837" x2="436.743" y1="54.174" y2="54.174"/><path clip-rule="evenodd" d="   M436.743,54.174c7.245,0,13.17,5.948,13.17,13.157" fill="none" fill-rule="evenodd" stroke="#130B7A" stroke-linecap="round" stroke-linejoin="round" stroke-miterlimit="2.6131" stroke-width="10"/><line clip-rule="evenodd" fill="none" fill-rule="evenodd" stroke="#130B7A" stroke-linecap="round" stroke-linejoin="round" stroke-miterlimit="2.6131" stroke-width="10" x1="449.913" x2="449.913" y1="67.331" y2="250.558"/><path clip-rule="evenodd" d="   M449.913,250.558c0,7.221-5.949,13.17-13.17,13.17" fill="none" fill-rule="evenodd" stroke="#130B7A" stroke-linecap="round" stroke-linejoin="round" stroke-miterlimit="2.6131" stroke-width="10"/><line clip-rule="evenodd" fill="none" fill-rule="evenodd" stroke="#130B7A" stroke-linecap="round" stroke-linejoin="round" stroke-miterlimit="2.6131" stroke-width="10" x1="436.743" x2="428.844" y1="263.728" y2="263.728"/><polyline clip-rule="evenodd" fill="none" fill-rule="evenodd" points="   279.868,151.16 279.868,106.889 336.837,54.174  " stroke="#130B7A" stroke-linecap="round" stroke-linejoin="round" stroke-miterlimit="2.6131" stroke-width="10"/><line clip-rule="evenodd" fill="none" fill-rule="evenodd" stroke="#130B7A" stroke-linecap="round" stroke-linejoin="round" stroke-miterlimit="2.6131" stroke-width="10" x1="339.538" x2="339.538" y1="54.174" y2="101.606"/><path clip-rule="evenodd" d="   M339.538,101.606c0,3.865-3.21,7.063-7.063,7.063" fill="none" fill-rule="evenodd" stroke="#130B7A" stroke-linecap="round" stroke-linejoin="round" stroke-miterlimit="2.6131" stroke-width="10"/><line clip-rule="evenodd" fill="none" fill-rule="evenodd" stroke="#130B7A" stroke-linecap="round" stroke-linejoin="round" stroke-miterlimit="2.6131" stroke-width="10" x1="332.476" x2="279.868" y1="108.67" y2="108.67"/><path clip-rule="evenodd" d="   M335.674,191.42v6.167 M335.674,218.329v9.632 M335.674,248.703v9.633 M335.674,279.065v9.645 M335.674,309.439v85.259" fill="none" fill-rule="evenodd" stroke="#130B7A" stroke-linecap="round" stroke-linejoin="round" stroke-miterlimit="2.6131" stroke-width="10"/><line clip-rule="evenodd" fill="none" fill-rule="evenodd" stroke="#130B7A" stroke-linecap="round" stroke-linejoin="round" stroke-miterlimit="2.6131" stroke-width="10" x1="335.674" x2="372.772" y1="394.698" y2="357.588"/><line clip-rule="evenodd" fill="none" fill-rule="evenodd" stroke="#130B7A" stroke-linecap="round" stroke-linejoin="round" stroke-miterlimit="2.6131" stroke-width="10" x1="335.674" x2="295.074" y1="394.698" y2="354.086"/><path clip-rule="evenodd" d="   M44.278,151.172h15.06l-1.03-11.438c-0.703-7.741,5.052-14.066,12.782-14.066h106.012c7.742,0,14.636,6.325,15.339,14.066   l1.042,11.438h204.053c11.607,0,21.954,9.486,23.008,21.094l22.899,252.455c1.054,11.607-7.585,21.105-19.191,21.105H71.005   c-11.607,0-21.966-9.498-23.02-21.105L25.087,172.266C24.033,160.658,32.671,151.172,44.278,151.172z" fill="none" fill-rule="evenodd" stroke="#130B7A" stroke-linecap="round" stroke-linejoin="round" stroke-miterlimit="2.6131" stroke-width="10"/><path clip-rule="evenodd" d="   M449.913,189.942h8.905c10.08,0,17.289,8.238,16.041,18.318l-27.225,219.234c-1.26,10.081-10.516,18.331-20.597,18.331" fill="none" fill-rule="evenodd" stroke="#130B7A" stroke-linecap="round" stroke-linejoin="round" stroke-miterlimit="2.6131" stroke-width="10"/></g></svg>